<mxfile host="Electron" agent="Mozilla/5.0 (Macintosh; Intel Mac OS X 10_15_7) AppleWebKit/537.36 (KHTML, like Gecko) draw.io/24.7.17 Chrome/128.0.6613.36 Electron/32.0.1 Safari/537.36" version="24.7.17">
  <diagram name="PÃ¡gina-1" id="yEcAX3MVduztyPCYcaKd">
    <mxGraphModel dx="287" dy="894" grid="1" gridSize="10" guides="1" tooltips="1" connect="1" arrows="1" fold="1" page="1" pageScale="1" pageWidth="827" pageHeight="1169" math="0" shadow="0">
      <root>
        <mxCell id="0" />
        <mxCell id="1" parent="0" />
        <mxCell id="WHhKaLDW5L7cVrh5uMdc-1" value="Vite" style="shape=image;verticalLabelPosition=bottom;labelBackgroundColor=default;verticalAlign=top;aspect=fixed;imageAspect=0;image=data:image/svg+xml,PHN2ZyB4bWxucz0iaHR0cDovL3d3dy53My5vcmcvMjAwMC9zdmciIGZpbGw9Im5vbmUiIHZpZXdCb3g9IjAgMCAzMiAzMiIgaGVpZ2h0PSI4MDBweCIgd2lkdGg9IjgwMHB4Ij48dGl0bGU+ZmlsZV90eXBlX3ZpdGU8L3RpdGxlPjxwYXRoIGZpbGw9InVybCgjcGFpbnQwX2xpbmVhcikiIGQ9Ik0yOS44ODM2IDYuMTQ2TDE2Ljc0MTggMjkuNjQ1N2MtLjI3MTQuNDg1MS0uOTY4NC40ODgtMS4yNDM5LjAwNTJMMi4wOTU2IDYuMTQ4MmMtLjMtLjUyNjIuMTQ5OC0xLjE2MzUuNzQ2LTEuMDU3bDEzLjE1NiAyLjM1MTZhLjcxNDQuNzE0NCAwIDAwLjI1MzctLjAwMDRsMTIuODgwOC0yLjM0NzhjLjU5NDItLjEwODMgMS4wNDYzLjUyNDEuNzUxNSAxLjA1MTN6Ii8+PHBhdGggZmlsbD0idXJsKCNwYWludDFfbGluZWFyKSIgZD0iTTIyLjI2NDQgMi4wMDY5bC05LjcyNTMgMS45MDU2YS4zNTcxLjM1NzEgMCAwMC0uMjg3OS4zMjk0bC0uNTk4MiAxMC4xMDM4Yy0uMDE0LjIzOC4yMDQ1LjQyMjcuNDM2Ny4zNjkxbDIuNzA3Ny0uNjI0OGMuMjUzNC0uMDU4NS40ODIzLjE2NDcuNDMwMi40MTk0bC0uODA0NCAzLjkzOTNjLS4wNTQyLjI2NS4xOTQ3LjQ5MTguNDUzNi40MTMybDEuNjcyNC0uNTA4MmMuMjU5My0uMDc4Ny41MDg0LjE0ODcuNDUzNi40MTRsLTEuMjc4NCA2LjE4NzdjLS4wOC4zODcuNDM0OC41OTguNjQ5NS4yNjYyTDE2LjUxNzMgMjUgMjQuNDQyIDkuMTg0OGMuMTMyNy0uMjY0OC0uMDk2LS41NjY3LS4zODctLjUxMDZsLTIuNzg3LjUzNzljLS4yNjIuMDUwNS0uNDg0OC0uMTkzNC0uNDEwOS0uNDQ5N2wxLjgxOTEtNi4zMDZjLjA3NC0uMjU2OC0uMTQ5Ni0uNTAwOS0uNDExOC0uNDQ5NXoiLz48ZGVmcyBpZD0iZGVmczUwIj48bGluZWFyR3JhZGllbnQgZ3JhZGllbnRUcmFuc2Zvcm09Im1hdHJpeCguMDcxNDIgMCAwIC4wNzE0MiAxLjMzOTggMS44OTQ0KSIgZ3JhZGllbnRVbml0cz0idXNlclNwYWNlT25Vc2UiIHkyPSIzNDQiIHgyPSIyMzUiIHkxPSIzMi45OTk5IiB4MT0iNi4wMDAyIiBpZD0icGFpbnQwX2xpbmVhciI+PHN0b3AgaWQ9InN0b3AzOCIgc3RvcC1jb2xvcj0iIzQxRDFGRiIvPjxzdG9wIGlkPSJzdG9wNDAiIHN0b3AtY29sb3I9IiNCRDM0RkUiIG9mZnNldD0iMSIvPjwvbGluZWFyR3JhZGllbnQ+PGxpbmVhckdyYWRpZW50IGdyYWRpZW50VHJhbnNmb3JtPSJtYXRyaXgoLjA3MTQyIDAgMCAuMDcxNDIgMS4zMzk4IDEuODk0NCkiIGdyYWRpZW50VW5pdHM9InVzZXJTcGFjZU9uVXNlIiB5Mj0iMjkyLjk4OSIgeDI9IjIzNi4wNzYiIHkxPSI4LjgxODIiIHgxPSIxOTQuNjUxIiBpZD0icGFpbnQxX2xpbmVhciI+PHN0b3AgaWQ9InN0b3A0MyIgc3RvcC1jb2xvcj0iI0ZGRUE4MyIvPjxzdG9wIGlkPSJzdG9wNDUiIHN0b3AtY29sb3I9IiNGRkREMzUiIG9mZnNldD0iLjA4MzMiLz48c3RvcCBpZD0ic3RvcDQ3IiBzdG9wLWNvbG9yPSIjRkZBODAwIiBvZmZzZXQ9IjEiLz48L2xpbmVhckdyYWRpZW50PjwvZGVmcz48L3N2Zz4=;fontSize=24;" vertex="1" parent="1">
          <mxGeometry x="1010" y="300" width="60" height="60" as="geometry" />
        </mxCell>
        <mxCell id="WHhKaLDW5L7cVrh5uMdc-2" value="React js" style="shape=image;verticalLabelPosition=bottom;labelBackgroundColor=default;verticalAlign=top;aspect=fixed;imageAspect=0;image=data:image/svg+xml,PHN2ZyB4bWxucz0iaHR0cDovL3d3dy53My5vcmcvMjAwMC9zdmciIGZpbGw9Im5vbmUiIHZpZXdCb3g9IjAgMCAzMiAzMiIgaGVpZ2h0PSI4MDBweCIgd2lkdGg9IjgwMHB4Ij4mI3hhOzxwYXRoIGZpbGw9IiM1M0MxREUiIGQ9Ik0xOC42Nzg5IDE1Ljk3NTlDMTguNjc4OSAxNC41NDE1IDE3LjQ3OTYgMTMuMzc4NSAxNiAxMy4zNzg1QzE0LjUyMDYgMTMuMzc4NSAxMy4zMjExIDE0LjU0MTUgMTMuMzIxMSAxNS45NzU5QzEzLjMyMTEgMTcuNDEwNSAxNC41MjA2IDE4LjU3MzQgMTYgMTguNTczNEMxNy40Nzk2IDE4LjU3MzQgMTguNjc4OSAxNy40MTA1IDE4LjY3ODkgMTUuOTc1OVoiLz4mI3hhOzxwYXRoIGZpbGw9IiM1M0MxREUiIGQ9Ik0yNC43MDA0IDExLjE1MzdDMjUuMjY2MSA4LjkyNDc4IDI1Ljk3NzIgNC43OTE0OCAyMy40NzA0IDMuMzkwMTZDMjAuOTc1MyAxLjk5NDk1IDE3LjcyODQgNC42Njg0MyAxNi4wMTM5IDYuMjczMThDMTQuMzA0NCA0LjY4NDQyIDEwLjk2NjMgMi4wMjIzNyA4LjQ2MTYzIDMuNDI4MTRDNS45Njc1MSA0LjgyODAzIDYuNzM2NjQgOC44OTI4IDcuMzE0OSAxMS4xMzU3QzQuOTg4MzEgMTEuNzc2NCAxIDEzLjE1NjQgMSAxNS45NzU5QzEgMTguNzg3NCA0Ljk4NDE2IDIwLjI4ODggNy4yOTY5OCAyMC45Mjg5QzYuNzE2NTggMjMuMTg0MiA1Ljk4NTk2IDI3LjE5MDkgOC40ODMyNyAyOC41ODc3QzEwLjk5NzMgMjkuOTkzMiAxNC4zMjUgMjcuMzk0NSAxNi4wNTU0IDI1Ljc3MjJDMTcuNzgwOSAyNy4zODY0IDIwLjk5NjYgMzAuMDAyMSAyMy40OTIyIDI4LjYwMTRDMjUuOTk1NiAyNy4xOTYzIDI1LjM0MzYgMjMuMTE4NCAyNC43NjUzIDIwLjg2MjVDMjcuMDA3MyAyMC4yMjEgMzEgMTguNzUyMyAzMSAxNS45NzU5QzMxIDEzLjE4MzUgMjYuOTkwMyAxMS43OTIzIDI0LjcwMDQgMTEuMTUzN1pNMjQuNDE2MiAxOS42NjdDMjQuMDM2NSAxOC41MDE2IDIzLjUyNCAxNy4yNjIzIDIyLjg5NzEgMTUuOTgyMUMyMy40OTU1IDE0LjczMjEgMjMuOTg4MSAxMy41MDg4IDI0LjM1NzIgMTIuMzUwOUMyNi4wMzU5IDEyLjgyMjggMjkuNzE4NSAxMy45MDEzIDI5LjcxODUgMTUuOTc1OUMyOS43MTg1IDE4LjA3IDI2LjE4NDYgMTkuMTU4NyAyNC40MTYyIDE5LjY2N1pNMjIuODUgMjcuNTI2QzIwLjk4OCAyOC41NzEgMTguMjIyMSAyNi4wNjk2IDE2Ljk0NzggMjQuODgwOUMxNy43OTMyIDIzLjk4NDQgMTguNjM4IDIyLjk0MjIgMTkuNDYyNSAyMS43ODQ5QzIwLjkxMjkgMjEuNjYwMiAyMi4yODMgMjEuNDU2MiAyMy41MjU2IDIxLjE3NzdDMjMuOTMyNiAyMi43NzM0IDI0LjcyMDIgMjYuNDc2MyAyMi44NSAyNy41MjZaTTkuMTIzNjIgMjcuNTExMUM3LjI2MTQzIDI2LjQ3IDguMTEyNTggMjIuODk0NiA4LjUzOTU3IDIxLjIzMzNDOS43NjgzNCAyMS40OTY5IDExLjEyODYgMjEuNjg2NSAxMi41ODI0IDIxLjgwMDhDMTMuNDEyMyAyMi45MzMyIDE0LjI4MTYgMjMuOTc0MSAxNS4xNTc2IDI0Ljg4NTdDMTQuMDc1MyAyNS45MDA4IDEwLjk5NDUgMjguNTU3IDkuMTIzNjIgMjcuNTExMVpNMi4yODE0OSAxNS45NzU5QzIuMjgxNDkgMTMuODc0IDUuOTQyMDcgMTIuODAzMyA3LjY1OTA0IDEyLjMzMjZDOC4wMzQ1MSAxMy41MTY1IDguNTI2OTUgMTQuNzU0NCA5LjEyMTIzIDE2LjAwNjJDOC41MTkyNSAxNy4yNzY2IDguMDE5NzcgMTguNTM0MSA3LjY0MDg1IDE5LjczMkM2LjAwMzY5IDE5LjI3NzYgMi4yODE0OSAxOC4wNzkxIDIuMjgxNDkgMTUuOTc1OVpNOS4xMDM3IDQuNTAzNTRDMTAuOTczNSAzLjQ1NDE2IDEzLjg3NDcgNi4wMDk4MyAxNS4xMTU5IDcuMTYwMTNDMTQuMjQ0NCA4LjA2NzU0IDEzLjM4MzEgOS4xMDA2IDEyLjU2MDMgMTAuMjI2NUMxMS4xNDk0IDEwLjM1MzMgOS43OTg3NSAxMC41NTY5IDguNTU3MDkgMTAuODI5N0M4LjA5MTI1IDkuMDIwNzEgNy4yMzU5MiA1LjU1MTc5IDkuMTAzNyA0LjUwMzU0Wk0yMC4zNzkzIDExLjU3NzFDMjEuMzM2NSAxMS42OTQyIDIyLjI1MzYgMTEuODUgMjMuMTE0NyAxMi4wNDA2QzIyLjg1NjIgMTIuODQ0IDIyLjUzNCAxMy42ODQxIDIyLjE1NDUgMTQuNTQ1M0MyMS42MDQ0IDEzLjUzMzMgMjEuMDEzOSAxMi41NDE2IDIwLjM3OTMgMTEuNTc3MVpNMTYuMDE0MyA4LjA0ODFDMTYuNjA1NCA4LjY2ODk3IDE3LjE5NzQgOS4zNjIzIDE3Ljc3OTggMTAuMTE0NUMxNi41OTg1IDEwLjA2MDMgMTUuNDE1MyAxMC4wNjAxIDE0LjIzNCAxMC4xMTM3QzE0LjgxNjkgOS4zNjg0OCAxNS40MTQgOC42NzYxOCAxNi4wMTQzIDguMDQ4MVpNOS44NTY1IDE0LjU0NDRDOS40ODMyOSAxMy42ODYyIDkuMTYzOTggMTIuODQyNCA4LjkwMzIyIDEyLjAyNzVDOS43NTkxOCAxMS44NDE4IDEwLjY3MiAxMS42OSAxMS42MjMgMTEuNTc0OEMxMC45ODY2IDEyLjUzNzIgMTAuMzk3MSAxMy41Mjg1IDkuODU2NSAxNC41NDQ0Wk0xMS42NTAzIDIwLjQ2NTdDMTAuNjY3OSAyMC4zNTk0IDkuNzQxMjYgMjAuMjE1MyA4Ljg4NTU2IDIwLjAzNDdDOS4xNTA0NCAxOS4yMDU1IDkuNDc2NzggMTguMzQzNSA5Ljg1Nzk2IDE3LjQ2NjhDMTAuNDA2IDE4LjQ5MzMgMTEuMDA0NSAxOS40OTQyIDExLjY1MDMgMjAuNDY1N1pNMTYuMDQ5OCAyMy45OTE1QzE1LjQ0MjQgMjMuMzU2IDE0LjgzNjUgMjIuNjUzMSAxNC4yNDQ4IDIxLjg5NzFDMTUuNDMyOCAyMS45NDIzIDE2LjYyMzEgMjEuOTQyNCAxNy44MTEgMjEuODkxQzE3LjIyNjggMjIuNjYwOCAxNi42MzY5IDIzLjM2NDcgMTYuMDQ5OCAyMy45OTE1Wk0yMi4xNjY3IDE3LjQyMjJDMjIuNTY3NyAxOC4zMDg0IDIyLjkwNTcgMTkuMTY1NyAyMy4xNzQyIDE5Ljk4MDlDMjIuMzA0MyAyMC4xNzM0IDIxLjM2NTIgMjAuMzI4NCAyMC4zNzU3IDIwLjQ0MzVDMjEuMDE1IDE5LjQ2MDcgMjEuNjE0OSAxOC40NTM2IDIyLjE2NjcgMTcuNDIyMlpNMTguNzQ3MyAyMC41OTQxQzE2LjkzMDEgMjAuNzIgMTUuMTAxNiAyMC43MTg2IDEzLjI4MzggMjAuNjA0NEMxMi4yNTA5IDE5LjE0MTUgMTEuMzMxNCAxNy42MDMgMTAuNTM3NyAxNi4wMDU4QzExLjMyNzYgMTQuNDExOSAxMi4yNDA0IDEyLjg3NjQgMTMuMjY4NCAxMS40MTU4QzE1LjA4NzUgMTEuMjgyNSAxNi45MTc4IDExLjI4MjEgMTguNzM2OSAxMS40MTY2QzE5Ljc1NjEgMTIuODc3MSAyMC42Njc1IDE0LjQwODYgMjEuNDc1NyAxNS45ODgxQzIwLjY3NzEgMTcuNTgxMiAxOS43NTk1IDE5LjExOTggMTguNzQ3MyAyMC41OTQxWk0yMi44MzAzIDQuNDY2NkMyNC43MDA2IDUuNTEyNTQgMjMuODY4MSA5LjIyNzI2IDIzLjQ1OTUgMTAuODQyNkMyMi4yMTQ5IDEwLjU2NDEgMjAuODYzMyAxMC4zNTY5IDE5LjQ0ODMgMTAuMjI4MUMxOC42MjM5IDkuMDkwMDQgMTcuNzY5OCA4LjA1NTE4IDE2LjkxMjQgNy4xNTk0OUMxOC4xNjk1IDUuOTg0NDEgMjAuOTc4MSAzLjQzMDg5IDIyLjgzMDMgNC40NjY2WiIgY2xpcC1ydWxlPSJldmVub2RkIiBmaWxsLXJ1bGU9ImV2ZW5vZGQiLz4mI3hhOzwvc3ZnPg==;fontSize=24;" vertex="1" parent="1">
          <mxGeometry x="1150" y="300" width="60" height="60" as="geometry" />
        </mxCell>
        <mxCell id="WHhKaLDW5L7cVrh5uMdc-3" value="Cypress" style="shape=image;verticalLabelPosition=bottom;labelBackgroundColor=default;verticalAlign=top;aspect=fixed;imageAspect=0;image=data:image/svg+xml,PHN2ZyB4bWxucz0iaHR0cDovL3d3dy53My5vcmcvMjAwMC9zdmciIHJvbGU9ImltZyIgdmlld0JveD0iMCAwIDI0IDI0IiBoZWlnaHQ9IjgwMHB4IiB3aWR0aD0iODAwcHgiIGZpbGw9IiMwMDAwMDAiPjxwYXRoIGQ9Ik0xMS45OTggMEM1LjM2NiAwIDAgNS4zNjcgMCAxMmExMS45OTIgMTEuOTkyIDAgMCAwIDEyIDEyYzYuNjMzIDAgMTItNS4zNjcgMTItMTItLjAwMS02LjYzMy01LjQxMi0xMi0xMi4wMDItMTJ6TTYuMzcgMTQuNTc1Yy4zOTIuNTIzLjkxNi43NDIgMS42NTcuNzQyLjM1IDAgLjY5OS0uMDQ0IDEuMDA0LS4xNzUuMzA2LS4xMy42NTUtLjMwNiAxLjA5LS41NjdsMS4yMjMgMS43NDVjLTEuMDAzLjgzLTIuMTM4IDEuMjIyLTMuNDQ3IDEuMjIyLTEuMDQ4IDAtMS45Mi0uMjE4LTIuNzA1LS42NTRhNC4zOTMgNC4zOTMgMCAwIDEtMS43NDYtMS45MmMtLjM5Mi0uODMtLjYxMS0xLjc5LS42MTEtMi45MjUgMC0xLjA5LjIxOS0yLjA5NC42MS0yLjkyM2E0LjYyMyA0LjYyMyAwIDAgMSAxLjc0OC0yLjAwN2MuNzQxLS40OCAxLjY1Ny0uNjk4IDIuNjYxLS42OTguNjk5IDAgMS4zNTMuMDg3IDEuODc3LjMwNWE1LjY0IDUuNjQgMCAwIDEgMS42MTQuOTZsLTEuMjIyIDEuNjU4QTQuNzg2IDQuNzg2IDAgMCAwIDkuMTIgOC43N2MtLjMwNS0uMTMtLjY5OC0uMTc0LTEuMDQ4LS4xNzQtMS40ODMgMC0yLjIyNSAxLjEzNC0yLjIyNSAzLjQ0Ni0uMDQzIDEuMTguMTc1IDIuMDA4LjUyNCAyLjUzMkg2LjM3em0xMiAyLjcwNWMtLjQzNiAxLjM1My0xLjA5MSAyLjM1Ny0yLjAwOCAzLjA5OC0uOTE2Ljc0My0yLjEzOCAxLjEzNS0zLjY2NSAxLjI2NmwtLjMwNS0yLjA1YzEuMDAzLS4xMzIgMS43NDUtLjM1IDIuMjI1LS43LjE3NC0uMTMuNTI0LS41MjMuNTI0LS41MjNMMTEuNTE5IDYuNzY0aDMuMDFsMi4wOTUgOC42ODMgMi4yMjYtOC42ODNoMi45MjNMMTguMzcgMTcuMjh6Ii8+PC9zdmc+;fontSize=24;" vertex="1" parent="1">
          <mxGeometry x="1145" y="120" width="65" height="65" as="geometry" />
        </mxCell>
        <mxCell id="WHhKaLDW5L7cVrh5uMdc-4" value="" style="shape=flexArrow;endArrow=classic;html=1;rounded=0;" edge="1" parent="1">
          <mxGeometry width="50" height="50" relative="1" as="geometry">
            <mxPoint x="1070" y="329.5" as="sourcePoint" />
            <mxPoint x="1140" y="329.5" as="targetPoint" />
          </mxGeometry>
        </mxCell>
        <mxCell id="WHhKaLDW5L7cVrh5uMdc-5" value="" style="shape=flexArrow;endArrow=classic;html=1;rounded=0;" edge="1" parent="1">
          <mxGeometry width="50" height="50" relative="1" as="geometry">
            <mxPoint x="1179.5" y="230" as="sourcePoint" />
            <mxPoint x="1179.5" y="290" as="targetPoint" />
          </mxGeometry>
        </mxCell>
        <mxCell id="WHhKaLDW5L7cVrh5uMdc-8" value="" style="shape=image;verticalLabelPosition=bottom;labelBackgroundColor=default;verticalAlign=top;aspect=fixed;imageAspect=0;image=data:image/svg+xml,PHN2ZyB4bWxuczp4bGluaz0iaHR0cDovL3d3dy53My5vcmcvMTk5OS94bGluayIgeG1sbnM9Imh0dHA6Ly93d3cudzMub3JnLzIwMDAvc3ZnIiB2aWV3Qm94PSIwIDAgMjczLjQyIDM1LjUyIj48ZGVmcz48c3R5bGU+LmNscy0xe2ZpbGw6dXJsKCNsaW5lYXItZ3JhZGllbnQpO308L3N0eWxlPjxsaW5lYXJHcmFkaWVudCBncmFkaWVudFVuaXRzPSJ1c2VyU3BhY2VPblVzZSIgeTI9IjE3Ljc2IiB4Mj0iMjczLjQyIiB5MT0iMTcuNzYiIGlkPSJsaW5lYXItZ3JhZGllbnQiPjxzdG9wIHN0b3AtY29sb3I9IiM5MGNlYTEiIG9mZnNldD0iMCIvPjxzdG9wIHN0b3AtY29sb3I9IiMzY2JlYzkiIG9mZnNldD0iMC41NiIvPjxzdG9wIHN0b3AtY29sb3I9IiMwMGIzZTUiIG9mZnNldD0iMSIvPjwvbGluZWFyR3JhZGllbnQ+PC9kZWZzPjx0aXRsZT5Bc3NldCAzPC90aXRsZT48ZyBkYXRhLW5hbWU9IkxheWVyIDIiIGlkPSJMYXllcl8yIj48ZyBkYXRhLW5hbWU9IkxheWVyIDEiIGlkPSJMYXllcl8xLTIiPjxwYXRoIGQ9Ik0xOTEuODUsMzUuMzdoNjMuOUExNy42NywxNy42NywwLDAsMCwyNzMuNDIsMTcuN2gwQTE3LjY3LDE3LjY3LDAsMCwwLDI1NS43NSwwaC02My45QTE3LjY3LDE3LjY3LDAsMCwwLDE3NC4xOCwxNy43aDBBMTcuNjcsMTcuNjcsMCwwLDAsMTkxLjg1LDM1LjM3Wk0xMC4xLDM1LjQyaDcuOFY2LjkySDI4VjBIMHY2LjlIMTAuMVptMjguMSwwSDQ2VjguMjVoLjFMNTUuMDUsMzUuNGg2TDcwLjMsOC4yNWguMVYzNS40aDcuOFYwSDY2LjQ1bC04LjIsMjMuMWgtLjFMNTAsMEgzOC4yWk04OS4xNC4xMmgxMS43YTMzLjU2LDMzLjU2LDAsMCwxLDguMDgsMSwxOC41MiwxOC41MiwwLDAsMSw2LjY3LDMuMDgsMTUuMDksMTUuMDksMCwwLDEsNC41Myw1LjUyLDE4LjUsMTguNSwwLDAsMSwxLjY3LDguMjUsMTYuOTEsMTYuOTEsMCwwLDEtMS42Miw3LjU4LDE2LjMsMTYuMywwLDAsMS00LjM4LDUuNSwxOS4yNCwxOS4yNCwwLDAsMS02LjM1LDMuMzcsMjQuNTMsMjQuNTMsMCwwLDEtNy41NSwxLjE1SDg5LjE0Wm03LjgsMjguMmg0YTIxLjY2LDIxLjY2LDAsMCwwLDUtLjU1QTEwLjU4LDEwLjU4LDAsMCwwLDExMCwyNmE4LjczLDguNzMsMCwwLDAsMi42OC0zLjM1LDExLjksMTEuOSwwLDAsMCwxLTUuMDgsOS44Nyw5Ljg3LDAsMCwwLTEtNC41Miw5LjE3LDkuMTcsMCwwLDAtMi42My0zLjE4QTExLjYxLDExLjYxLDAsMCwwLDEwNi4yMiw4YTE3LjA2LDE3LjA2LDAsMCwwLTQuNjgtLjYzaC00LjZaTTEzMy4wOS4xMmgxMy4yYTMyLjg3LDMyLjg3LDAsMCwxLDQuNjMuMzMsMTIuNjYsMTIuNjYsMCwwLDEsNC4xNywxLjMsNy45NCw3Ljk0LDAsMCwxLDMsMi43Miw4LjM0LDguMzQsMCwwLDEsMS4xNSw0LjY1LDcuNDgsNy40OCwwLDAsMS0xLjY3LDUsOS4xMyw5LjEzLDAsMCwxLTQuNDMsMi44MlYxN2ExMC4yOCwxMC4yOCwwLDAsMSwzLjE4LDEsOC41MSw4LjUxLDAsMCwxLDIuNDUsMS44NSw3Ljc5LDcuNzksMCwwLDEsMS41NywyLjYyLDkuMTYsOS4xNiwwLDAsMSwuNTUsMy4yLDguNTIsOC41MiwwLDAsMS0xLjIsNC42OCw5LjMyLDkuMzIsMCwwLDEtMy4xLDNBMTMuMzgsMTMuMzgsMCwwLDEsMTUyLjMyLDM1YTIyLjUsMjIuNSwwLDAsMS00LjczLjVoLTE0LjVabTcuOCwxNC4xNWg1LjY1YTcuNjUsNy42NSwwLDAsMCwxLjc4LS4yLDQuNzgsNC43OCwwLDAsMCwxLjU3LS42NSwzLjQzLDMuNDMsMCwwLDAsMS4xMy0xLjIsMy42MywzLjYzLDAsMCwwLC40Mi0xLjhBMy4zLDMuMywwLDAsMCwxNTEsOC42YTMuNDIsMy40MiwwLDAsMC0xLjIzLTEuMTNBNi4wNyw2LjA3LDAsMCwwLDE0OCw2LjlhOS45LDkuOSwwLDAsMC0xLjg1LS4xOGgtNS4zWm0wLDE0LjY1aDdhOC4yNyw4LjI3LDAsMCwwLDEuODMtLjIsNC42Nyw0LjY3LDAsMCwwLDEuNjctLjcsMy45MywzLjkzLDAsMCwwLDEuMjMtMS4zLDMuOCwzLjgsMCwwLDAsLjQ3LTEuOTUsMy4xNiwzLjE2LDAsMCwwLS42Mi0yLDQsNCwwLDAsMC0xLjU4LTEuMTgsOC4yMyw4LjIzLDAsMCwwLTItLjU1LDE1LjEyLDE1LjEyLDAsMCwwLTIuMDUtLjE1aC01LjlaIiBjbGFzcz0iY2xzLTEiLz48L2c+PC9nPjwvc3ZnPg==;" vertex="1" parent="1">
          <mxGeometry x="1330" y="318.13" width="180" height="23.74" as="geometry" />
        </mxCell>
        <mxCell id="WHhKaLDW5L7cVrh5uMdc-9" value="" style="shape=flexArrow;endArrow=classic;startArrow=classic;html=1;rounded=0;" edge="1" parent="1">
          <mxGeometry width="100" height="100" relative="1" as="geometry">
            <mxPoint x="1220" y="330" as="sourcePoint" />
            <mxPoint x="1320" y="330" as="targetPoint" />
          </mxGeometry>
        </mxCell>
        <mxCell id="WHhKaLDW5L7cVrh5uMdc-11" value="Pruebas e2e" style="text;html=1;align=center;verticalAlign=middle;resizable=0;points=[];autosize=1;strokeColor=none;fillColor=none;fontSize=24;" vertex="1" parent="1">
          <mxGeometry x="1100" y="80" width="160" height="40" as="geometry" />
        </mxCell>
        <mxCell id="WHhKaLDW5L7cVrh5uMdc-12" value="Api de contenido&amp;nbsp;&lt;div&gt;de peliculas y series&lt;/div&gt;" style="text;html=1;align=center;verticalAlign=middle;resizable=0;points=[];autosize=1;strokeColor=none;fillColor=none;fontSize=24;" vertex="1" parent="1">
          <mxGeometry x="1300" y="350" width="240" height="70" as="geometry" />
        </mxCell>
        <mxCell id="WHhKaLDW5L7cVrh5uMdc-13" value="" style="shape=image;verticalLabelPosition=bottom;labelBackgroundColor=default;verticalAlign=top;aspect=fixed;imageAspect=0;image=data:image/svg+xml,PHN2ZyB4bWxuczp4bGluaz0iaHR0cDovL3d3dy53My5vcmcvMTk5OS94bGluayIgeG1sbnM9Imh0dHA6Ly93d3cudzMub3JnLzIwMDAvc3ZnIiB2aWV3Qm94PSIyMyA2IDQ2OSAxMzIiPiYjeGE7ICA8ZGVmcz4mI3hhOyAgICA8bGluZWFyR3JhZGllbnQgeTI9IjkyLjklIiB5MT0iMTcuMDIlIiB4Mj0iMTAwLjgzJSIgeDE9Ii0zLjQ5JSIgaWQ9ImEiPiYjeGE7ICAgICAgPHN0b3Agc3RvcC1vcGFjaXR5PSIuMSIgc3RvcC1jb2xvcj0iI2ZmZiIgb2Zmc2V0PSIwJSIvPiYjeGE7ICAgICAgPHN0b3Agc3RvcC1vcGFjaXR5PSIuMDgiIHN0b3AtY29sb3I9IiNmZmYiIG9mZnNldD0iMTQlIi8+JiN4YTsgICAgICA8c3RvcCBzdG9wLW9wYWNpdHk9Ii4wMiIgc3RvcC1jb2xvcj0iI2ZmZiIgb2Zmc2V0PSI2MSUiLz4mI3hhOyAgICAgIDxzdG9wIHN0b3Atb3BhY2l0eT0iMCIgc3RvcC1jb2xvcj0iI2ZmZiIgb2Zmc2V0PSIxMDAlIi8+JiN4YTsgICAgPC9saW5lYXJHcmFkaWVudD4mI3hhOyAgICA8cGF0aCBkPSJNMTA2LjY4NyAzNS4yNzQyYy0uMTg2LTEuMDk3Ny0uOTY3LTItMi4wMjQ0LTIuMzM4cy0yLjIxNDgtLjA1Ny0zLjAwMDIuNzNMODYuMjQ3MyA0OS4xNjZsLTEyLjEyLTIzLjE0NTVjLS41MTMzLS45Nzg2LTEuNTI1LTEuNTkxNC0yLjYyNzMtMS41OTE0cy0yLjExNC42MTI4LTIuNjI3MyAxLjU5MTRsLTYuNjI3NyAxMi42NTZMNDUuNjIgNy41NzI2Yy0uNjAzLTEuMTI5Ny0xLjg1ODgtMS43NDYtMy4xMTgtMS41Mjk3cy0yLjIzOTQgMS4yMTYtMi40MzM1IDIuNDgyN0wyNCAxMTEuNzAxbDQyLjk3MjcgMjQuMTY1NGMyLjY5ODUgMS41MTEzIDUuOTg1IDEuNTExMyA4LjY4MzYgMEwxMTkgMTExLjcwMWwtMTIuMzEzLTc2LjQyN3oiIGlkPSJiIi8+JiN4YTsgIDwvZGVmcz4mI3hhOyAgPHBhdGggZD0iTTE2My43NzMyIDEwNi41MTc2SDE1NVYzOC43NjU0aDM5Ljg0NDJ2OC4zMjRoLTMxLjA3djIyLjI0NGgyOC4wMjV2OC4xMzE4aC0yOC4wMjV2MjkuMDUyNXptNDcuNTY3My01OC4wMDE1Yy0yLjA5MTQgMi4wODUtNS4zNzU1IDIuNDEyNS03Ljg0My43ODIzcy0zLjQzMDctNC43NjQtMi4zLTcuNDgzNyA0LjAzOTUtNC4yNjc4IDYuOTQ3Mi0zLjY5NjggNS4wMDM4IDMuMTAyIDUuMDA1OCA2LjA0NGMuMDI4MiAxLjYzODYtLjYyOTggMy4yMTU0LTEuODE3MiA0LjM1NDJoLjAwNzR6bTAgNTguMDAxNWgtOC43NzMyVjYwLjE1Mmg4Ljc3MzJ2NDYuMzY1OHptMTkuMjUxOCAwaC04Ljc3MzJWNjAuMTUyaDguMzg2djcuNTdoLjM3OThjMS4wMTMtMi42Njc2IDIuOTU4NC00Ljg4NDcgNS40ODE0LTYuMjQ2NyAyLjQwOTQtMS41MzUyIDUuMTk2LTIuMzg2NiA4LjA1ODItMi40NjE3IDIuMjQ3LS4wNjM0IDQuNDgzNS4zMjM4IDYuNTc2MiAxLjEzODRsLTMuMzM2NSA4LjEzMTdhMTMuMzU1IDEzLjM1NSAwIDAgMC00LjY2OTYtLjY2NTNjLTMuMjE3LjAxNjItNi4yNzg4IDEuMzczNi04LjQzOCAzLjc0MDYtMi40NDc3IDIuNDkzNy0zLjY3MTYgNS43NTg4LTMuNjcxNiA5Ljc5NWwuMDA3NCAyNS4zNjM3em00NC4xNDkgMS40Nzg1Yy03LjA1NTMgMC0xMi43OS0yLjMzMzYtMTcuMjAzOC03cy02LjYyMzMtMTAuNTU0LTYuNjI4My0xNy42NjA3Yy0uMTI5Ni02LjM5ODYgMi4xNjctMTIuNjEyIDYuNDM0Ny0xNy40MDkzIDQuMDg3NC00Ljc3NSAxMC4xMzM4LTcuNDU1IDE2LjQ0NC03LjI5IDYuOTI2MiAwIDEyLjQ3MiAyLjI0IDE2LjYzNzcgNi43MTk4czYuMjQ2IDEwLjQ3MjcgNi4yNCAxNy45Nzg2bC0uMDk2OCAxLjYxMTZoLTM2LjkwMjRjLjI1MzIgNC42NjcgMS44MjcgOC4zNjM0IDQuNzIxNyAxMS4wODg3IDIuNzA3IDIuNjM3NCA2LjM1OCA0LjEgMTAuMTUgNC4wNjYgNi4yOTA3IDAgMTAuNTQ4Mi0yLjY1IDEyLjc3MjUtNy45NDdsNy44MiAzLjIxNTdjLTEuNTg0NiAzLjY2Ni00LjE5ODQgNi44MDItNy41Mjk0IDkuMDMzNi0zLjUgMi4zOTUyLTcuNzg3NiAzLjU5MjgtMTIuODYyIDMuNTkyOHptMTIuNTg2My0zMC4zMDkyYy0uMTg4Ny0yLjY1MTQtMS40MTI1LTUuMTc0Ny0zLjY3MTYtNy41N3MtNS42MTgtMy41NjgtMTAuMDc2NS0zLjUxODhjLTMuMDkyNC0uMDUzOC02LjA5NjQgMS4wMjUzLTguNDM4IDMuMDMxLTIuNDUzMiAyLjEzMzgtNC4xNjk4IDQuOTc4LTQuOTA4IDguMTMxN2wyNy4wOTQtLjA3NHptNDEuMDM1OCAzMC4zMDkyYy0zLjMxOTQuMDY1My02LjYwMjItLjY5NzItOS41NDc3LTIuMjE3Ny0yLjU4NjctMS4yOTUtNC43NzU1LTMuMjU1OC02LjMzNzgtNS42Nzc0aC0uMzc5OHY2LjQxNjdoLTguMzkzM1YzOC43NjU0aDguNzczMlY2MC4xNTJsLS4zNzk4IDYuNDMxNWguMzc5OGMxLjU2MjMtMi40MjE3IDMuNzUxLTQuMzgyNSA2LjMzNzgtNS42Nzc0IDIuOTQxLTEuNTM4MiA2LjIyNC0yLjMxODYgOS41NDc3LTIuMjY5NSA2LjAzNzQgMCAxMS4yNTA3IDIuMzY1NiAxNS42Mzk4IDcuMDk2OHM2LjU4MSAxMC41OTg0IDYuNTc2MiAxNy42MDE1LTIuMTkyIDEyLjg3MDMtNi41NzYyIDE3LjYwMTUtOS41OTc0IDcuMDg0NS0xNS42Mzk4IDcuMDU5OHptLTEuNDMtNy45NDdjMy45OTY1LjAzMTUgNy44MTQ3LTEuNjQgMTAuNDg2LTQuNTkwNyAyLjkyNDQtMy4wNjA1IDQuMzg2Ni03LjExNCA0LjM4NjYtMTIuMTYwN3MtMS40NjIyLTkuMS00LjM4NjYtMTIuMTYwN2MtMi43MDItMi45MTU0LTYuNTA3OC00LjU3OC0xMC40OTg3LTQuNTg2NXMtNy44MDM4IDEuNjM4Mi0xMC41MTgyIDQuNTQyYy0yLjg4OTYgMy4wMjYtNC4zMzQ1IDcuMDk0My00LjMzNDUgMTIuMjA1czEuNDU5NyA5LjE5MTMgNC4zNzkgMTIuMjQyYzIuNjg4IDIuOTM5NyA2LjUxNjYgNC41OTQ4IDEwLjUxNiA0LjU0NjRsLS4wMjk4LS4wMzd6bTQ1Ljk4MSA3Ljk0N2MtNC45NjUgMC05LjExMDgtMS40MTk0LTEyLjQzNzMtNC4yNThzLTQuOTk0OC02LjU5MTYtNS4wMDQ3LTExLjI1ODhjMC01LjA0NjYgMS45NzEtOS4wMDQgNS45MTMzLTExLjg3MjRzOC44MDMtNC4zMDI0IDE0LjU4MjItNC4zMDI0YzUuMTQ4NyAwIDkuMzcuOTQ2MiAxMi42NjA4IDIuODM4N1Y3Ny44MmMuMTI1Ny0zLjExNjUtMS4xNzEyLTYuMTIzLTMuNTMtOC4xODM1LTIuNDAyLTIuMDUzNC01LjQ5My0zLjEzNzYtOC42NjE1LTMuMDM4My0yLjQyNDgtLjAzLTQuODEzLjU4OTgtNi45MTEzIDEuNzk2NC0xLjk2NTcgMS4wODA4LTMuNDcyOCAyLjgyODgtNC4yNDUgNC45MjM0bC04LjAwNi0zLjQwOGMxLjA4MjQtMi43ODQ1IDMuMjEyNC01LjM2NyA2LjQtNy43NDczczcuMzczLTMuNTYzMiAxMi41ODYzLTMuNTQ4NGM1Ljk1OCAwIDEwLjkyMyAxLjcyNSAxNC44OTUgNS4xNzQ3czUuOTQzIDguMzM4NyA1LjkxMzMgMTQuNjY2N3YyOC4wNjJoLTguNDE1N3YtNi40MzE1aC0uMzc5OGMtMy41IDUuMjczMy04LjYxNjggNy45LTE1LjM0OTMgNy45em0xLjQzLTcuOTQ3YzMuNjg2Ni0uMDEyOCA3LjIyNTQtMS40NDA2IDkuODc1NC0zLjk4NDYgMi44MjQzLTIuMzYzMyA0LjQ1ODUtNS44NCA0LjQ2ODUtOS41MDY4LTIuNDgyNS0yLjAyMDYtNi4yMDYzLTMuMDMxLTExLjE3MTMtMy4wMzEtNC4yNiAwLTcuNDcuOTE0Mi05LjYyOTYgMi43NDI2LTIuMDE1NiAxLjUzOC0zLjIwOTUgMy45MDgyLTMuMjM5NyA2LjQzMTUtLjA0MSAyLjE5NTggMS4wOTI1IDQuMjUgMi45OCA1LjM5NjUgMS45ODQgMS4zMjQgNC4zMjcgMi4wMTc2IDYuNzE3NyAxLjk4ODZ2LS4wMzd6bTQ4LjUyMDYgNy45NDdjLTUuMjEzMyAwLTkuNTE4LTEuMjYxNy0xMi45MTQtMy43ODUtMy4zMDQtMi40MjIzLTUuODc5Mi01LjY5NC03LjQ0NzUtOS40NjI0bDcuODItMy4yMTU3YzIuNDgyNSA1LjgwNTYgNi43MDI4IDguNzA4NCAxMi42NjA4IDguNzA4NCAyLjM2NjguMDk2MiA0LjcwNjQtLjUzMDggNi43MDI4LTEuNzk2NCAxLjY0NjItMS4wMTQ1IDIuNjQtMi44MDggMi42MjE1LTQuNzMxMiAwLTMuMDI2LTIuMTMtNS4wNzYyLTYuNC02LjE1MDZsLTkuNDM2LTIuMjY5NWMtMy4xMDUtLjgxNTQtNS45OTc3LTIuMjgyNi04LjQ4MjctNC4zMDI0LTIuNjQ1LTIuMDQ3Ni00LjEzNjItNS4yMzM0LTQuMDA2OC04LjU2MDUgMC00LjEgMS44MjctNy40MjcgNS40ODE0LTkuOTggMy44MjI1LTIuNjA0NSA4LjM3NTgtMy45NDQ3IDEzLjAxMDgtMy44MjkzIDMuODctLjA2MTQgNy42ODU4LjkwNiAxMS4wNTIgMi44MDE4IDMuMTc4IDEuNzkxIDUuNjM1MiA0LjYxNjQgNi45NTYgNy45OTg3bC03LjYxODggMy4wOWMtMS43MTMtNC4xLTUuMjcyOC02LjE1MDYtMTAuNjc5Ny02LjE1MDYtMi4zLS4wNzYtNC41NzYuNDgyLTYuNTc2MiAxLjYxMTYtMS42Mzg3Ljg0MjctMi42NjcgMi41MjIyLTIuNjY2MiA0LjM1NDIgMCAyLjY1MTQgMi4wNjU0IDQuNDUwMyA2LjE5NjMgNS4zOTY1bDkuMjQyNCAyLjE4MDhjNC4zODQuOTg1NyA3LjYyNjMgMi43MTA2IDkuNzI2NSA1LjE3NDcgMi4wMzQzIDIuMzAyIDMuMTUxOCA1LjI2MiAzLjE0MjggOC4zMjQuMDQwNiA0LjA4MjQtMS44NjggNy45NDMtNS4xNDYyIDEwLjQwODYtMy40MzA4IDIuNzg5NC03Ljg0NzIgNC4xODQyLTEzLjI0OSA0LjE4NDJ6bTQ3LjE4NzQgMGMtNy4wNTUzIDAtMTIuNzktMi4zMzM2LTE3LjIwMzgtN1M0NDYuMjI1IDkwLjQyOSA0NDYuMjIgODMuMjk3OGMtLjEyOTYtNi4zOTg2IDIuMTY3LTEyLjYxMiA2LjQzNDctMTcuNDA5MyA0LjEwMjgtNC43NjMgMTAuMTU1Ni03LjQyODcgMTYuNDY2NS03LjI1MiA2Ljk1IDAgMTIuNDk3IDIuMjQgMTYuNjM3NyA2LjcxOThTNDkxLjk4IDc1LjgyOSA0OTIgODMuMzM0OGwtLjA5NjggMS42MTE2SDQ1NC45N2MuMjUzMiA0LjY2NyAxLjgyNyA4LjM2MzQgNC43MjE3IDExLjA4ODcgMi43MTQ4IDIuNjM3NCA2LjM3NSA0LjA5NSAxMC4xNzMzIDQuMDUxIDYuMjkwNyAwIDEwLjU0ODItMi42NSAxMi43NzI1LTcuOTQ3bDcuODIgMy4yMTU3Yy0xLjU4NDIgMy42NjYyLTQuMTk4IDYuODAyMi03LjUyOTQgOS4wMzM2LTMuNSAyLjQwNS03Ljc5MjYgMy42MDc1LTEyLjg3NjggMy42MDc1em0xMi41ODYzLTMwLjMwOTJjLS4xODg3LTIuNjUxNC0xLjQxMjUtNS4xNzQ3LTMuNjcxNi03LjU3cy01LjYxMy0zLjU2OC0xMC4wNjE2LTMuNTE4OGMtMy4wOTIzLS4wNTMtNi4wOTYgMS4wMjYtOC40MzggMy4wMzEtMi40NTMyIDIuMTMzOC00LjE2OTggNC45NzgtNC45MDggOC4xMzE3bDI3LjA3OTItLjA3NHoiIG9wYWNpdHk9Ii41NCIvPiYjeGE7ICA8cGF0aCBkPSJNMjMuODMzMyAxMTEuNzE4N0wzOS45NjU1IDguNDkwNmMuMTk3Mi0xLjI2NiAxLjE4MTgtMi4yNjQgMi40NDUtMi40Nzg2czIuNTIyLjQwMjggMy4xMjYgMS41MzI3TDYyLjIyIDM4LjY2Mmw2LjY1LTEyLjY2MTVjLjUxNS0uOTc5IDEuNTMwMy0xLjU5MiAyLjYzNjYtMS41OTJzMi4xMjE1LjYxMyAyLjYzNjYgMS41OTJsNDUuMDIyNyA4NS43MThIMjMuODMzM3oiIGZpbGw9IiNmZmEwMDAiLz4mI3hhOyAgPHBhdGggZD0iTTc5LjU2NiA3MS41MDc0TDYyLjIxMjQgMzguNjQ3MmwtMzguMzc5IDczLjA3MTVMNzkuNTY2IDcxLjUwNzR6IiBmaWxsPSIjZjU3YzAwIi8+JiN4YTsgIDxwYXRoIGQ9Ik0xMTkuMTY2NiAxMTEuNzE4N2wtMTIuMzU2LTc2LjQ2MDNjLS4xODY3LTEuMDk4LS45NzAzLTItMi4wMzE1LTIuMzRzLTIuMjIyNi0uMDU3LTMuMDEwNy43MzAybC03Ny45MzUgNzguMDY5IDQzLjEyMzQgMjQuMTgzNGMyLjcwOCAxLjUxMiA2LjAwNiAxLjUxMiA4LjcxNCAwbDQzLjQ5NTgtMjQuMTgzNHoiIGZpbGw9IiNmZmNhMjgiLz4mI3hhOyAgPHBhdGggZD0iTTEwNi44MTA1IDM1LjI1ODRjLS4xODY3LTEuMDk4LS45NzAzLTItMi4wMzE1LTIuMzRzLTIuMjIyNi0uMDU3LTMuMDEwNy43MzAyTDg2LjMgNDkuMTU2MiA3NC4xMzY1IDI2Yy0uNTE1LS45NzktMS41MzAzLTEuNTkyLTIuNjM2Ni0xLjU5MnMtMi4xMjE1LjYxMy0yLjYzNjYgMS41OTJsLTYuNjUgMTIuNjYxNUw0NS41MjkgNy41NDQ3Yy0uNjA1LTEuMTMwMi0xLjg2NTMtMS43NDY2LTMuMTMtMS41MzA0UzQwLjE1MyA3LjIzMSAzOS45NTggOC40OThMMjMuODMzMyAxMTEuNzE4N2gtLjA1MmwuMDUyLjA1OTYuNDI0NS4yMDg1IDc3LjQ4OC03Ny41Nzc1Yy43ODc3LS43OTE1IDEuOTUyLTEuMDc2IDMuMDE2LS43MzdzMS44NDkgMS4yNDQ1IDIuMDMzOCAyLjM0NTdsMTIuMjUxOCA3NS43NzUuMTE5Mi0uMDc0NS0xMi4zNTYtNzYuNDYwM3ptLTgyLjgzNTcgNzYuMzE4OEwzOS45NjU1IDkuMjI4Yy4xOTQ4LTEuMjY3IDEuMTc4NC0yLjI2NzUgMi40NDItMi40ODM3czIuNTI0LjQgMy4xMyAxLjUzMDRMNjIuMjIgMzkuMzkybDYuNjUtMTIuNjYxNWMuNTE1LS45NzkgMS41MzAzLTEuNTkyIDIuNjM2Ni0xLjU5MnMyLjEyMTUuNjEzIDIuNjM2NiAxLjU5MmwxMS45MTY3IDIyLjY2NC02Mi4wODU4IDYyLjE4Mjd6IiBmaWxsLW9wYWNpdHk9Ii4yIiBmaWxsPSIjZmZmIi8+JiN4YTsgIDxwYXRoIGQ9Ik03NS42NzA4IDEzNS4xNzIyYy0yLjcwOCAxLjUxMi02LjAwNiAxLjUxMi04LjcxNCAwTDIzLjkzNzYgMTExLjA1NmwtLjEwNDMuNjYzIDQzLjEyMzQgMjQuMTc2YzIuNzA4IDEuNTEyIDYuMDA2IDEuNTEyIDguNzE0IDBsNDMuNDk1OC0yNC4xNzYtLjExMTctLjY4NTItNDMuMzg0IDI0LjEzODd6IiBvcGFjaXR5PSIuMiIgZmlsbD0iI2E1MjcxNCIvPiYjeGE7ICA8dXNlIHhsaW5rOmhyZWY9IiNiIiBmaWxsPSJ1cmwoI2EpIi8+JiN4YTs8L3N2Zz4=;" vertex="1" parent="1">
          <mxGeometry x="1100" y="470" width="177.65" height="50" as="geometry" />
        </mxCell>
        <mxCell id="WHhKaLDW5L7cVrh5uMdc-14" value="" style="shape=flexArrow;endArrow=classic;html=1;rounded=0;" edge="1" parent="1">
          <mxGeometry width="50" height="50" relative="1" as="geometry">
            <mxPoint x="1177" y="470" as="sourcePoint" />
            <mxPoint x="1177.5" y="410" as="targetPoint" />
          </mxGeometry>
        </mxCell>
      </root>
    </mxGraphModel>
  </diagram>
</mxfile>
